<?xml version="1.0" encoding="UTF-8" standalone="no"?>
<svg
   xmlns:dc="http://purl.org/dc/elements/1.1/"
   xmlns:cc="http://creativecommons.org/ns#"
   xmlns:rdf="http://www.w3.org/1999/02/22-rdf-syntax-ns#"
   xmlns:svg="http://www.w3.org/2000/svg"
   xmlns="http://www.w3.org/2000/svg"
   version="1.1"
   id="svg2"
   height="64"
   width="64">
  <defs
     id="defs4" />
  <metadata
     id="metadata7">
    <rdf:RDF>
      <cc:Work
         rdf:about="">
        <dc:format>image/svg+xml</dc:format>
        <dc:type
           rdf:resource="http://purl.org/dc/dcmitype/StillImage" />
        <dc:title></dc:title>
      </cc:Work>
    </rdf:RDF>
  </metadata>
  <g
     transform="translate(0,-988.3622)"
     id="layer1">
    <circle
       r="32"
       cy="1020.3622"
       cx="32"
       id="circle3410"
       style="opacity:1;fill:#ffe0df;fill-opacity:1;stroke:none;stroke-width:2;stroke-linecap:round;stroke-linejoin:round;stroke-miterlimit:4;stroke-dasharray:none;stroke-dashoffset:0;stroke-opacity:1" />
    <path
       id="circle3342"
       d="m 32,988.3622 a 32,32 0 0 0 -32,32 32,32 0 0 0 10.875,24 l 22.125,0 c 11.55646,0 21.175023,-8.1355 23.470703,-19 l -4.470703,0 8,-8 0,3 c 0,14.8939 -12.10608,27 -27,27 l -18.105469,0 a 32,32 0 0 0 17.105469,5 32,32 0 0 0 32,-32 32,32 0 0 0 -10.875,-24 l -21.125,0 c -11.556458,0 -21.175023,8.1355 -23.470703,19 l 4.470703,0 -8,8 0,-3 c 0,-14.8939 12.106079,-27 27,-27 l 17.105469,0 a 32,32 0 0 0 -17.105469,-5 z"
       style="opacity:1;fill:#fd2f22;fill-opacity:1;stroke:none;stroke-width:2;stroke-linecap:round;stroke-linejoin:round;stroke-miterlimit:4;stroke-dasharray:none;stroke-dashoffset:0;stroke-opacity:1" />
    <g
       id="text3285"
       style="font-style:normal;font-weight:normal;font-size:6.67637539px;line-height:0%;font-family:Sans;text-align:center;letter-spacing:0px;word-spacing:0px;text-anchor:middle;fill:#ff00ff;fill-opacity:1;stroke:none;stroke-width:1px;stroke-linecap:butt;stroke-linejoin:miter;stroke-opacity:1"
       transform="matrix(0,-1,1,0,0,0)" />
    <g
       id="text3289"
       style="font-style:normal;font-weight:normal;font-size:6.67637539px;line-height:0%;font-family:Sans;text-align:center;letter-spacing:0px;word-spacing:0px;text-anchor:middle;fill:#ff00ff;fill-opacity:1;stroke:none;stroke-width:1px;stroke-linecap:butt;stroke-linejoin:miter;stroke-opacity:1"
       transform="matrix(0,-1,1,0,0,0)" />
    <path
       id="path3320"
       transform="translate(0,988.3622)"
       d="M 36.626953 12 L 39.310547 14.712891 L 37.888672 16.119141 L 35.076172 13.275391 L 33.654297 14.681641 L 36.466797 17.525391 L 35.044922 18.931641 L 32.232422 16.087891 L 30.810547 17.494141 L 33.623047 20.337891 L 32.201172 21.746094 L 29.388672 18.902344 L 27.966797 20.308594 L 30.779297 23.152344 L 29.357422 24.558594 L 26.544922 21.714844 L 25.123047 23.121094 L 30.75 28.808594 L 29.328125 30.214844 L 23.701172 24.527344 L 22.279297 25.933594 L 25.091797 28.777344 L 23.669922 30.185547 L 20.857422 27.341797 L 19.435547 28.748047 L 22.248047 31.591797 L 20.828125 32.998047 L 18.013672 30.154297 L 16.591797 31.560547 L 19.40625 34.404297 L 17.984375 35.810547 L 15.169922 32.966797 L 13.748047 34.373047 L 16.5625 37.216797 L 15.140625 38.623047 L 12.326172 35.78125 L 10.904297 37.1875 L 20.75 47.138672 L 19.328125 48.546875 L 9.4824219 38.59375 L 8.0605469 40 L 19.931641 52 L 22.021484 52 C 21.734266 51.685008 21.505133 51.389563 21.375 51.125 C 21.215439 50.7968 21.150857 50.484706 21.181641 50.191406 C 21.213921 49.896506 21.352425 49.625359 21.599609 49.380859 C 21.781957 49.200459 21.978596 49.081431 22.189453 49.019531 C 22.294117 48.988031 22.402258 48.970172 22.511719 48.966797 C 22.62118 48.963422 22.732136 48.973047 22.845703 48.998047 C 23.07138 49.047047 23.308499 49.146022 23.556641 49.294922 C 23.803467 49.442022 24.092582 49.684684 24.425781 50.021484 C 24.820117 50.420084 25.096398 50.782975 25.257812 51.109375 C 25.410219 51.419927 25.470442 51.715775 25.449219 52 L 28.634766 52 L 56.939453 24 L 45.068359 12 L 42.255859 12 L 49.1875 19.007812 L 47.765625 20.414062 L 39.441406 12 L 36.626953 12 z M 50.660156 20.632812 L 54.035156 24.044922 L 53.619141 24.457031 L 50.990234 21.798828 C 50.984534 21.993928 50.944034 22.220616 50.875 22.478516 C 50.80753 22.734716 50.734775 22.950653 50.652344 23.126953 L 50.251953 22.724609 C 50.376754 22.384109 50.448523 22.049503 50.46875 21.720703 C 50.48898 21.392003 50.463255 21.118991 50.390625 20.900391 L 50.660156 20.632812 z M 22.697266 49.525391 C 22.38557 49.470391 22.132148 49.540222 21.9375 49.732422 C 21.74591 49.922022 21.672579 50.154387 21.71875 50.429688 C 21.77989 50.778787 22.086904 51.231263 22.638672 51.789062 C 22.728432 51.879788 22.79548 51.922541 22.878906 52 L 24.892578 52 C 24.897897 51.918697 24.916078 51.843818 24.900391 51.751953 C 24.848281 51.436653 24.546333 51.001512 23.996094 50.445312 C 23.442799 49.886013 23.010172 49.579591 22.697266 49.525391 z "
       style="opacity:1;fill:#ffe0df;fill-opacity:1;stroke:none;stroke-width:2;stroke-linecap:round;stroke-linejoin:round;stroke-miterlimit:4;stroke-dasharray:none;stroke-dashoffset:0;stroke-opacity:1" />
    <g
       transform="matrix(0.71091126,-0.70328172,0.70328172,0.71091126,696.38798,233.48442)"
       style="font-style:normal;font-weight:normal;font-size:6.67637539px;line-height:0%;font-family:Sans;text-align:center;letter-spacing:0px;word-spacing:0px;text-anchor:middle;fill:#ffe0df;fill-opacity:1;stroke:none;stroke-width:1px;stroke-linecap:butt;stroke-linejoin:miter;stroke-opacity:1"
       id="g3322" />
    <g
       transform="matrix(0.71091126,-0.70328172,0.70328172,0.71091126,696.38798,233.48442)"
       style="font-style:normal;font-weight:normal;font-size:6.67637539px;line-height:0%;font-family:Sans;text-align:center;letter-spacing:0px;word-spacing:0px;text-anchor:middle;fill:#ffe0df;fill-opacity:1;stroke:none;stroke-width:1px;stroke-linecap:butt;stroke-linejoin:miter;stroke-opacity:1"
       id="g3324" />
  </g>
</svg>
